<svg id="Capa_1" enable-background="new 0 0 504.5 504.5" height="512" viewBox="0 0 504.5 504.5" width="512" xmlns="http://www.w3.org/2000/svg"><g><path d="m413.5 87.66c-4.143 0-7.5 3.358-7.5 7.5 0 45.491-37.01 82.5-82.5 82.5-4.143 0-30 0-30 0v15h30c53.762 0 97.5-43.738 97.5-97.5 0-4.142-3.357-7.5-7.5-7.5z" fill="#ff4128"/><path d="m226.002 285v196.592l-24.87 8.29c-3.93 1.31-6.053 5.557-4.744 9.487 1.31 3.93 5.559 6.054 9.487 4.744l29.998-10c3.063-1.021 5.128-3.887 5.128-7.115v-201.998z" fill="#c27749"/><path d="m301.002 285v196.592l24.87 8.29c3.93 1.31 6.053 5.557 4.744 9.487-1.31 3.93-5.559 6.054-9.487 4.744l-29.998-10c-3.063-1.021-5.128-3.887-5.128-7.115v-201.998z" fill="#a45e43"/><path d="m278.5 315h40v142h-40z" fill="#4f4f4f"/><path d="m248.5 382v30h-40v-30l20-15z" fill="#b3b3b3"/><path d="m208.5 315h40v67h-40z" fill="#696969"/><path d="m293.5 345h30v-30l-75-45z" fill="#a8e5ff"/><path d="m293.5 345h-90v-30l90-45z" fill="#dbf4ff"/><path d="m303.5 165h-10l-45 75 45 75h30v-130c0-11.05-8.95-20-20-20z" fill="#ff4128"/><path d="m293.5 165v150h-90v-130c0-11.05 8.95-20 20-20z" fill="#ff6337"/><path d="m263.498 55v80c24.853 0 45-20.147 45-45 0-5.261-.912-10.307-2.571-15z" fill="#a45e43"/><path d="m263.498 45 14.143 30h28.286c-6.179-17.476-22.838-30-42.429-30z" fill="#a8e5ff"/><path d="m221.068 75c-1.659 4.693-2.571 9.739-2.571 15 0 24.853 20.147 45 45 45 8.284 0 15-20.147 15-45 0-5.261-.304-10.307-.857-15l-14.143-20z" fill="#c27749"/><path d="m263.498 45c-19.592 0-36.25 12.524-42.429 30h56.572c-2.06-17.476-7.613-30-14.143-30z" fill="#dbf4ff"/><path d="m308.503 90c0-24.853 20.147-45 45-45 0 24.853-20.148 45-45 45z" fill="#dbf4ff"/><path d="m353.503 135c-24.853 0-45-20.147-45-45 24.852 0 45 20.147 45 45z" fill="#a8e5ff"/><path d="m263.5 232.5c-20.678 0-37.5-16.822-37.5-37.5h15c0 12.407 10.094 22.5 22.5 22.5s22.5-10.093 22.5-22.5h15c0 20.678-16.822 37.5-37.5 37.5z" fill="#ffe2a8"/><path d="m263.5 292.499c-20.678 0-37.5-16.822-37.5-37.5v-89.999h15v89.999c0 12.407 10.094 22.5 22.5 22.5s22.5-10.093 22.5-22.5v-89.999h15v89.999c0 20.678-16.822 37.5-37.5 37.5z" fill="#ffcb63"/><path d="m123.495 225 50.005-15v-90h-30.005z" fill="#7dd9ff"/><path d="m113.5 150-40 42.5 40 47.5 30-30v-90c-16.569 0-30 13.431-30 30z" fill="#a8e5ff"/><path d="m83.5 120h-30v90l60 30v-90c0-16.569-13.431-30-30-30z" fill="#dbf4ff"/><path d="m83.5 210h-30v30h60c0-16.569-13.431-30-30-30z" fill="#a8e5ff"/><path d="m143.497 240h30.003v-30.003h-30.003l-15 15.002z" fill="#49c9ff"/><path d="m113.5 240h30v-30c-16.569 0-30 13.431-30 30z" fill="#7dd9ff"/><path d="m429.75 0c-6.523 0-12.352 2.941-16.25 7.561l-15 24.939 15 32.5s37.5-16.312 37.5-43.777c0-11.721-9.514-21.223-21.25-21.223z" fill="#cf301b"/><path d="m397.25 0c-11.736 0-21.25 9.502-21.25 21.223 0 27.465 37.5 43.777 37.5 43.777v-57.439c-3.898-4.62-9.727-7.561-16.25-7.561z" fill="#ff4128"/></g></svg>